<svg xmlns="http://www.w3.org/2000/svg" viewBox="0 0 400 400" width="400" height="400">
  <!-- Organic Nature Pattern - Flowing Leaves and Growth -->
  <defs>
    <linearGradient id="leafGrad1" x1="0%" y1="0%" x2="100%" y2="100%">
      <stop offset="0%" style="stop-color:#66BB6A;stop-opacity:1" />
      <stop offset="100%" style="stop-color:#2E7D32;stop-opacity:1" />
    </linearGradient>
    
    <linearGradient id="leafGrad2" x1="0%" y1="0%" x2="100%" y2="100%">
      <stop offset="0%" style="stop-color:#81C784;stop-opacity:1" />
      <stop offset="100%" style="stop-color:#66BB6A;stop-opacity:1" />
    </linearGradient>
    
    <radialGradient id="centerGlow" cx="50%" cy="50%">
      <stop offset="0%" style="stop-color:#FDD835;stop-opacity:0.8" />
      <stop offset="100%" style="stop-color:#66BB6A;stop-opacity:0.2" />
    </radialGradient>
  </defs>
  
  <!-- Soft background -->
  <rect width="400" height="400" fill="#F1F8E9"/>
  
  <!-- Flowing stems -->
  <path d="M 200,400 Q 180,300 200,200 Q 220,100 200,0" 
        fill="none" stroke="#8D6E63" stroke-width="3" opacity="0.4"/>
  <path d="M 100,400 Q 120,320 100,240 Q 80,160 100,80" 
        fill="none" stroke="#8D6E63" stroke-width="2" opacity="0.3"/>
  <path d="M 300,400 Q 280,320 300,240 Q 320,160 300,80" 
        fill="none" stroke="#8D6E63" stroke-width="2" opacity="0.3"/>
  
  <!-- Large organic leaves -->
  <g opacity="0.8">
    <!-- Left leaf cluster -->
    <ellipse cx="80" cy="150" rx="35" ry="60" fill="url(#leafGrad1)" 
             transform="rotate(-30 80 150)"/>
    <path d="M 80,120 Q 75,140 80,160" stroke="#2E7D32" stroke-width="1.5" fill="none"/>
    
    <ellipse cx="110" cy="200" rx="30" ry="50" fill="url(#leafGrad2)" 
             transform="rotate(20 110 200)"/>
    <path d="M 110,175 Q 105,190 110,205" stroke="#2E7D32" stroke-width="1.5" fill="none"/>
    
    <!-- Right leaf cluster -->
    <ellipse cx="320" cy="150" rx="35" ry="60" fill="url(#leafGrad1)" 
             transform="rotate(30 320 150)"/>
    <path d="M 320,120 Q 325,140 320,160" stroke="#2E7D32" stroke-width="1.5" fill="none"/>
    
    <ellipse cx="290" cy="200" rx="30" ry="50" fill="url(#leafGrad2)" 
             transform="rotate(-20 290 200)"/>
    <path d="M 290,175 Q 295,190 290,205" stroke="#2E7D32" stroke-width="1.5" fill="none"/>
    
    <!-- Center leaves -->
    <ellipse cx="170" cy="280" rx="40" ry="65" fill="url(#leafGrad1)" 
             transform="rotate(-15 170 280)"/>
    <path d="M 170,245 Q 165,270 170,295" stroke="#2E7D32" stroke-width="2" fill="none"/>
    
    <ellipse cx="230" cy="280" rx="40" ry="65" fill="url(#leafGrad2)" 
             transform="rotate(15 230 280)"/>
    <path d="M 230,245 Q 235,270 230,295" stroke="#2E7D32" stroke-width="2" fill="none"/>
  </g>
  
  <!-- Small decorative leaves -->
  <g opacity="0.6">
    <ellipse cx="140" cy="100" rx="15" ry="25" fill="#81C784" transform="rotate(45 140 100)"/>
    <ellipse cx="260" cy="100" rx="15" ry="25" fill="#81C784" transform="rotate(-45 260 100)"/>
    <ellipse cx="130" cy="350" rx="12" ry="20" fill="#66BB6A" transform="rotate(-30 130 350)"/>
    <ellipse cx="270" cy="350" rx="12" ry="20" fill="#66BB6A" transform="rotate(30 270 350)"/>
  </g>
  
  <!-- Central flower bloom -->
  <g transform="translate(200, 200)">
    <!-- Glow effect -->
    <circle r="60" fill="url(#centerGlow)"/>
    
    <!-- Petals -->
    <g>
      <ellipse cx="0" cy="-35" rx="15" ry="30" fill="#FDD835" opacity="0.9"/>
      <ellipse cx="30" cy="-17" rx="15" ry="30" fill="#FDD835" opacity="0.9" transform="rotate(60 0 0)"/>
      <ellipse cx="30" cy="17" rx="15" ry="30" fill="#FDD835" opacity="0.9" transform="rotate(120 0 0)"/>
      <ellipse cx="0" cy="35" rx="15" ry="30" fill="#FDD835" opacity="0.9" transform="rotate(180 0 0)"/>
      <ellipse cx="-30" cy="17" rx="15" ry="30" fill="#FDD835" opacity="0.9" transform="rotate(240 0 0)"/>
      <ellipse cx="-30" cy="-17" rx="15" ry="30" fill="#FDD835" opacity="0.9" transform="rotate(300 0 0)"/>
    </g>
    
    <!-- Center -->
    <circle r="12" fill="#8D6E63"/>
    <circle r="8" fill="#FDD835" opacity="0.5"/>
  </g>
  
  <!-- Floating particles (seeds/pollen) -->
  <g opacity="0.4">
    <circle cx="60" cy="80" r="3" fill="#FDD835"/>
    <circle cx="340" cy="120" r="2.5" fill="#81C784"/>
    <circle cx="90" cy="320" r="2" fill="#66BB6A"/>
    <circle cx="310" cy="300" r="3" fill="#FDD835"/>
    <circle cx="200" cy="50" r="2.5" fill="#81C784"/>
    <circle cx="150" cy="370" r="2" fill="#66BB6A"/>
    <circle cx="250" cy="380" r="2.5" fill="#FDD835"/>
  </g>
  
  <!-- Growth spirals -->
  <g opacity="0.3" stroke="#66BB6A" fill="none" stroke-width="1">
    <path d="M 50,50 Q 60,55 65,65 Q 68,75 65,85"/>
    <path d="M 350,50 Q 340,55 335,65 Q 332,75 335,85"/>
    <path d="M 50,350 Q 60,345 65,335 Q 68,325 65,315"/>
    <path d="M 350,350 Q 340,345 335,335 Q 332,325 335,315"/>
  </g>
</svg>
